<svg width="272" height="123" viewBox="0 0 272 123" fill="none" xmlns="http://www.w3.org/2000/svg">
<path d="M59.8786 2.36268C63.8179 0.842221 68.1821 0.842221 72.1214 2.36268L106.111 15.4818C110.311 17.1027 113.696 20.3229 115.524 24.4361L128.93 54.5946C130.885 58.9908 130.885 64.0092 128.93 68.4054L115.524 98.5639C113.696 102.677 110.311 105.897 106.111 107.518L72.1214 120.637C68.1821 122.158 63.8179 122.158 59.8786 120.637L25.8887 107.518C21.6893 105.897 18.3041 102.677 16.4757 98.5639L3.06958 68.4053C1.11538 64.0092 1.11538 58.9908 3.06958 54.5946L16.4757 24.4361C18.3041 20.3229 21.6893 17.1027 25.8887 15.4818L59.8786 2.36268Z" fill="#FFCA00"/>
<path d="M160.11 100.3C159.86 100.267 159.326 100.208 158.51 100.125C157.71 100.042 157.043 100 156.51 100C155.993 100 155.426 100.042 154.81 100.125C154.21 100.208 153.818 100.267 153.635 100.3L153.785 99.15C154.551 99 155.068 98.7833 155.335 98.5C155.601 98.2 155.735 97.7 155.735 97L155.76 86.5C155.76 85.9667 155.693 85.6083 155.56 85.425C155.443 85.2417 155.201 85.15 154.835 85.15C154.668 85.15 154.501 85.1583 154.335 85.175C154.168 85.1917 154.051 85.2 153.985 85.2L153.935 85.1L154.11 84C154.293 84.0167 154.643 84.0333 155.16 84.05C155.676 84.0667 156.201 84.075 156.735 84.075C157.451 84.075 158.193 84.0667 158.96 84.05C159.726 84.0167 160.251 83.9917 160.535 83.975C162.135 83.975 163.56 84.2917 164.81 84.925C166.06 85.5417 167.026 86.4167 167.71 87.55C168.41 88.6833 168.76 89.9833 168.76 91.45C168.76 93.0833 168.376 94.575 167.61 95.925C166.843 97.275 165.801 98.3417 164.485 99.125C163.168 99.9083 161.71 100.3 160.11 100.3ZM158.81 85.2C158.46 85.2 158.226 85.2417 158.11 85.325C157.993 85.3917 157.926 85.5333 157.91 85.75C157.66 92.1667 157.535 95.825 157.535 96.725C157.535 97.3583 157.618 97.8333 157.785 98.15C157.968 98.4667 158.276 98.6917 158.71 98.825C159.16 98.9583 159.818 99.025 160.685 99.025C162.485 99.025 163.901 98.4083 164.935 97.175C165.968 95.925 166.485 94.2167 166.485 92.05C166.485 89.85 165.818 88.1583 164.485 86.975C163.168 85.7917 161.276 85.2 158.81 85.2ZM173.088 84.95C172.721 84.95 172.421 84.8333 172.188 84.6C171.971 84.3667 171.863 84.0583 171.863 83.675C171.863 83.2583 172.004 82.9083 172.288 82.625C172.571 82.3417 172.921 82.2 173.338 82.2C173.688 82.2 173.979 82.325 174.213 82.575C174.446 82.8083 174.563 83.1083 174.563 83.475C174.563 83.8917 174.421 84.2417 174.138 84.525C173.854 84.8083 173.504 84.95 173.088 84.95ZM170.963 99.275C171.463 99.1417 171.821 98.95 172.038 98.7C172.254 98.4333 172.363 98.0833 172.363 97.65V91.3C172.363 90.4 172.054 89.95 171.438 89.95C171.321 89.95 171.196 89.9667 171.063 90C170.929 90.0167 170.846 90.0333 170.813 90.05L170.913 89.125C171.613 89.025 172.329 88.8917 173.063 88.725C173.813 88.5583 174.296 88.45 174.513 88.4L174.638 88.7C174.488 89.05 174.354 90.125 174.238 91.925C174.121 93.7083 174.063 95.5833 174.063 97.55C174.063 98.0333 174.129 98.3917 174.263 98.625C174.396 98.8417 174.621 98.95 174.938 98.95C175.121 98.95 175.296 98.9417 175.463 98.925C175.629 98.9083 175.746 98.9 175.813 98.9L175.863 99L175.663 100.075C175.513 100.058 175.229 100.042 174.813 100.025C174.396 100.008 173.938 100 173.438 100C173.004 100 172.504 100.042 171.938 100.125C171.388 100.208 171.029 100.267 170.863 100.3L170.963 99.275ZM183.797 84C183.997 84.0167 184.372 84.0333 184.922 84.05C185.472 84.0667 186.022 84.075 186.572 84.075C187.089 84.075 187.672 84.0667 188.322 84.05C188.989 84.0167 189.455 83.9917 189.722 83.975C191.455 83.975 192.78 84.3583 193.697 85.125C194.614 85.8917 195.072 86.9917 195.072 88.425C195.072 89.3583 194.797 90.25 194.247 91.1C193.714 91.9333 193.005 92.6083 192.122 93.125C191.239 93.6417 190.314 93.9 189.347 93.9H187.247L187.197 96.35C187.197 97.15 187.222 97.725 187.272 98.075C187.322 98.4083 187.414 98.6333 187.547 98.75C187.697 98.85 187.947 98.9 188.297 98.9C188.58 98.9 188.847 98.8917 189.097 98.875C189.364 98.8583 189.547 98.8417 189.647 98.825L189.697 98.925L189.472 100.075C189.305 100.058 188.997 100.042 188.547 100.025C188.114 100.008 187.655 100 187.172 100C186.505 100 185.722 100.025 184.822 100.075C183.939 100.125 183.48 100.167 183.447 100.2L183.622 99.05C184.355 98.9167 184.839 98.725 185.072 98.475C185.305 98.2083 185.422 97.7167 185.422 97L185.447 86.5C185.447 85.9667 185.38 85.6083 185.247 85.425C185.13 85.2417 184.889 85.15 184.522 85.15C184.355 85.15 184.189 85.1583 184.022 85.175C183.855 85.1917 183.739 85.2 183.672 85.2L183.622 85.1L183.797 84ZM189.947 92.8C190.947 92.6333 191.697 92.225 192.197 91.575C192.714 90.925 192.972 90.0333 192.972 88.9C192.972 87.6167 192.589 86.6833 191.822 86.1C191.072 85.5 189.889 85.2 188.272 85.2C187.972 85.2 187.789 85.2167 187.722 85.25C187.655 85.2833 187.614 85.3833 187.597 85.55C187.447 87.6667 187.347 89.9583 187.297 92.425L189.947 92.8ZM202.278 92.7C202.278 91.8667 202.087 91.2167 201.703 90.75C201.32 90.2833 200.778 90.05 200.078 90.05C199.612 90.05 199.095 90.1667 198.528 90.4C197.962 90.6333 197.478 90.9333 197.078 91.3L196.953 91.225L196.653 90.15C197.503 89.65 198.312 89.2333 199.078 88.9C199.862 88.5667 200.412 88.4 200.728 88.4C201.812 88.4 202.662 88.6833 203.278 89.25C203.895 89.8167 204.203 90.6083 204.203 91.625C204.203 91.9917 204.145 92.7417 204.028 93.875C203.845 95.7083 203.753 96.875 203.753 97.375C203.753 97.7417 203.845 98.025 204.028 98.225C204.212 98.425 204.462 98.525 204.778 98.525C205.012 98.525 205.262 98.4667 205.528 98.35C205.812 98.2333 206.062 98.0833 206.278 97.9L206.628 98.3C206.362 98.7667 206.02 99.1917 205.603 99.575C205.203 99.9417 204.82 100.183 204.453 100.3C203.103 100.3 202.362 99.625 202.228 98.275L202.128 98.25C201.528 98.85 200.978 99.325 200.478 99.675C199.995 100.025 199.628 100.2 199.378 100.2C198.445 100.2 197.678 99.9083 197.078 99.325C196.478 98.7417 196.178 98 196.178 97.1C196.178 96.6167 196.295 96.1917 196.528 95.825C196.778 95.4583 197.103 95.2167 197.503 95.1L202.228 93.8L202.278 92.7ZM198.803 95.775C198.32 95.925 198.078 96.275 198.078 96.825C198.078 97.3083 198.237 97.7083 198.553 98.025C198.887 98.3417 199.303 98.5 199.803 98.5C200.12 98.5 200.487 98.3917 200.903 98.175C201.337 97.9417 201.728 97.65 202.078 97.3L202.178 94.75L198.803 95.775ZM208.274 99.1C208.774 99.05 209.107 98.8917 209.274 98.625C209.44 98.3417 209.524 97.8083 209.524 97.025V91.525C209.524 90.975 209.449 90.5833 209.299 90.35C209.149 90.1167 208.907 90 208.574 90C208.44 90 208.324 90.0083 208.224 90.025C208.14 90.0417 208.082 90.0583 208.049 90.075L207.924 89.9L207.999 89.125C208.632 89.0083 209.299 88.8667 209.999 88.7C210.715 88.5333 211.174 88.425 211.374 88.375L211.549 88.525C211.515 88.675 211.465 89.025 211.399 89.575C211.332 90.1083 211.307 90.6167 211.324 91.1L211.424 91.175C211.924 90.3917 212.507 89.75 213.174 89.25C213.857 88.75 214.449 88.5 214.949 88.5C215.182 88.5 215.357 88.5167 215.474 88.55C215.607 88.5667 215.69 88.5833 215.724 88.6L215.799 88.7C215.765 88.9333 215.69 89.4333 215.574 90.2C215.474 90.95 215.415 91.6417 215.399 92.275L214.424 92.35C214.424 91.6667 214.374 91.2167 214.274 91C214.19 90.7667 214.015 90.65 213.749 90.65C213.382 90.65 212.99 90.8083 212.574 91.125C212.157 91.425 211.774 91.8333 211.424 92.35C211.407 92.8333 211.374 93.6333 211.324 94.75C211.274 95.8667 211.24 96.7667 211.224 97.45C211.224 98.0167 211.307 98.4 211.474 98.6C211.64 98.8 211.957 98.9 212.424 98.9C212.64 98.9 212.857 98.8917 213.074 98.875C213.29 98.8583 213.44 98.85 213.524 98.85L213.549 98.95L213.324 100.05C213.157 100.05 212.824 100.042 212.324 100.025C211.824 100.008 211.307 100 210.774 100C210.157 100 209.599 100.008 209.099 100.025C208.599 100.058 208.282 100.083 208.149 100.1L208.274 99.1ZM224.494 99.275C224.994 99.1417 225.352 98.95 225.569 98.7C225.786 98.4333 225.894 98.0833 225.894 97.65L225.994 92.7C225.994 91.8667 225.811 91.225 225.444 90.775C225.094 90.325 224.586 90.1 223.919 90.1C223.386 90.1 222.844 90.2417 222.294 90.525C221.744 90.7917 221.261 91.0833 220.844 91.4C220.694 94.85 220.619 96.9 220.619 97.55C220.619 98.0667 220.686 98.4333 220.819 98.65C220.952 98.85 221.186 98.95 221.519 98.95C221.702 98.95 221.877 98.9417 222.044 98.925C222.211 98.9083 222.327 98.9 222.394 98.9L222.444 99L222.219 100.075C222.069 100.058 221.777 100.042 221.344 100.025C220.911 100.008 220.444 100 219.944 100C219.394 100 218.886 100.008 218.419 100.025C217.952 100.042 217.636 100.05 217.469 100.05L217.619 99.025C218.102 98.975 218.436 98.85 218.619 98.65C218.819 98.45 218.919 98.1167 218.919 97.65V91.55C218.919 90.9833 218.827 90.5917 218.644 90.375C218.461 90.1417 218.144 90.025 217.694 90.025H217.419L217.344 89.925L217.419 89.1C218.136 88.9833 218.844 88.85 219.544 88.7C220.261 88.5333 220.719 88.425 220.919 88.375L221.069 88.575C221.036 88.675 220.986 88.8917 220.919 89.225C220.852 89.5417 220.811 89.875 220.794 90.225L220.844 90.3C222.711 89.0333 223.936 88.4 224.519 88.4C225.319 88.4 225.994 88.575 226.544 88.925C227.094 89.2583 227.486 89.7417 227.719 90.375C228.319 89.9417 228.994 89.5083 229.744 89.075C230.494 88.625 231.077 88.4 231.494 88.4C232.544 88.4 233.377 88.6917 233.994 89.275C234.611 89.8583 234.919 90.6417 234.919 91.625C234.919 91.7917 234.869 92.5583 234.769 93.925C234.636 95.6583 234.569 96.8667 234.569 97.55C234.569 98.0667 234.636 98.4333 234.769 98.65C234.902 98.85 235.136 98.95 235.469 98.95C235.652 98.95 235.827 98.9417 235.994 98.925C236.161 98.9083 236.277 98.9 236.344 98.9L236.394 99L236.169 100.075C236.019 100.058 235.727 100.042 235.294 100.025C234.861 100.008 234.394 100 233.894 100C233.461 100 232.977 100.017 232.444 100.05C231.927 100.1 231.586 100.133 231.419 100.15L231.544 99.125C232.027 99.0417 232.369 98.8917 232.569 98.675C232.769 98.4583 232.869 98.1167 232.869 97.65L232.969 92.7C232.969 91.8667 232.786 91.225 232.419 90.775C232.069 90.325 231.561 90.1 230.894 90.1C230.027 90.1 229.019 90.5167 227.869 91.35L227.594 97.55C227.594 98.0333 227.661 98.3917 227.794 98.625C227.927 98.8417 228.152 98.95 228.469 98.95C228.652 98.95 228.827 98.9417 228.994 98.925C229.161 98.9083 229.277 98.9 229.344 98.9L229.394 99L229.194 100.075C229.044 100.058 228.761 100.042 228.344 100.025C227.927 100.008 227.469 100 226.969 100C226.536 100 226.036 100.042 225.469 100.125C224.919 100.208 224.561 100.267 224.394 100.3L224.494 99.275ZM244.295 92.7C244.295 91.8667 244.103 91.2167 243.72 90.75C243.337 90.2833 242.795 90.05 242.095 90.05C241.628 90.05 241.112 90.1667 240.545 90.4C239.978 90.6333 239.495 90.9333 239.095 91.3L238.97 91.225L238.67 90.15C239.52 89.65 240.328 89.2333 241.095 88.9C241.878 88.5667 242.428 88.4 242.745 88.4C243.828 88.4 244.678 88.6833 245.295 89.25C245.912 89.8167 246.22 90.6083 246.22 91.625C246.22 91.9917 246.162 92.7417 246.045 93.875C245.862 95.7083 245.77 96.875 245.77 97.375C245.77 97.7417 245.862 98.025 246.045 98.225C246.228 98.425 246.478 98.525 246.795 98.525C247.028 98.525 247.278 98.4667 247.545 98.35C247.828 98.2333 248.078 98.0833 248.295 97.9L248.645 98.3C248.378 98.7667 248.037 99.1917 247.62 99.575C247.22 99.9417 246.837 100.183 246.47 100.3C245.12 100.3 244.378 99.625 244.245 98.275L244.145 98.25C243.545 98.85 242.995 99.325 242.495 99.675C242.012 100.025 241.645 100.2 241.395 100.2C240.462 100.2 239.695 99.9083 239.095 99.325C238.495 98.7417 238.195 98 238.195 97.1C238.195 96.6167 238.312 96.1917 238.545 95.825C238.795 95.4583 239.12 95.2167 239.52 95.1L244.245 93.8L244.295 92.7ZM240.82 95.775C240.337 95.925 240.095 96.275 240.095 96.825C240.095 97.3083 240.253 97.7083 240.57 98.025C240.903 98.3417 241.32 98.5 241.82 98.5C242.137 98.5 242.503 98.3917 242.92 98.175C243.353 97.9417 243.745 97.65 244.095 97.3L244.195 94.75L240.82 95.775Z" fill="#F7CD5D"/>
<path d="M160.136 77.56C159.709 77.56 159.242 77.48 158.736 77.32C158.229 77.16 157.736 76.8533 157.256 76.4C156.776 75.92 156.376 75.2533 156.056 74.4C155.762 73.52 155.616 72.3733 155.616 70.96C155.616 70.7467 155.616 70.5467 155.616 70.36C155.616 70.1467 155.629 69.9333 155.656 69.72L156.136 62.72C155.656 62.16 155.416 61.7067 155.416 61.36C155.416 60.7467 155.709 60.3867 156.296 60.28L156.816 52.28C156.282 51.7733 155.802 51.2133 155.376 50.6C154.949 49.96 154.736 49.4267 154.736 49C154.736 48.5733 154.989 48.36 155.496 48.36C155.869 48.36 156.482 48.3333 157.336 48.28C158.189 48.2 159.122 48.12 160.136 48.04C161.149 47.96 162.122 47.8933 163.056 47.84C163.989 47.76 164.722 47.72 165.256 47.72C167.389 47.72 169.029 48.1733 170.176 49.08C171.322 49.96 171.896 50.9467 171.896 52.04C171.896 52.3067 171.762 52.44 171.496 52.44C171.256 52.44 171.029 52.44 170.816 52.44C170.602 52.4133 170.389 52.4 170.176 52.4C169.029 52.4 167.802 52.4667 166.496 52.6C165.216 52.7333 164.016 52.8667 162.896 53L162.376 59.36C163.069 59.3067 163.709 59.28 164.296 59.28C164.696 59.28 165.162 59.4 165.696 59.64C166.256 59.8533 166.789 60.1333 167.296 60.48C167.802 60.8267 168.229 61.2 168.576 61.6C168.922 61.9733 169.096 62.32 169.096 62.64C169.096 63.12 168.976 63.4267 168.736 63.56C168.496 63.6933 168.122 63.76 167.616 63.76C167.002 63.76 166.176 63.84 165.136 64C164.096 64.1333 163.042 64.2667 161.976 64.4L161.016 76.96C160.989 77.2 160.896 77.36 160.736 77.44C160.576 77.52 160.376 77.56 160.136 77.56ZM176.82 77.56C176.127 77.56 175.393 77.4267 174.62 77.16C173.873 76.8933 173.233 76.5067 172.7 76C172.193 75.4933 171.94 74.88 171.94 74.16C171.94 73.7333 171.967 72.9733 172.02 71.88C172.073 70.7867 172.14 69.52 172.22 68.08C172.3 66.6133 172.393 65.1067 172.5 63.56C172.607 61.9867 172.727 60.4933 172.86 59.08C172.993 57.6667 173.113 56.4667 173.22 55.48C173.247 55.2667 173.38 55.1333 173.62 55.08C173.86 55 174.06 54.96 174.22 54.96C174.833 54.96 175.513 55.1333 176.26 55.48C177.007 55.8267 177.647 56.2667 178.18 56.8C178.74 57.3333 179.02 57.8933 179.02 58.48C179.02 58.8267 178.967 59.52 178.86 60.56C178.753 61.5733 178.62 62.7867 178.46 64.2C178.327 65.6133 178.18 67.0933 178.02 68.64C177.887 70.1867 177.767 71.6933 177.66 73.16C177.553 74.6 177.5 75.8533 177.5 76.92C177.5 77.0533 177.447 77.1867 177.34 77.32C177.233 77.48 177.06 77.56 176.82 77.56ZM177.38 51C176.5 51 175.687 50.9067 174.94 50.72C174.22 50.5067 173.647 50.1333 173.22 49.6C172.82 49.0667 172.647 48.3067 172.7 47.32C172.753 46.8133 172.82 46.2667 172.9 45.68C173.007 45.0667 173.353 44.6933 173.94 44.56C174.26 44.5067 174.647 44.4667 175.1 44.44C175.553 44.4133 175.953 44.4 176.3 44.4C177.047 44.4 177.873 44.52 178.78 44.76C179.233 44.8667 179.46 45.04 179.46 45.28C179.46 45.8933 179.367 46.6133 179.18 47.44C178.993 48.2667 178.793 49.4 178.58 50.84C178.153 50.9467 177.753 51 177.38 51ZM188.01 77.8C187.237 77.8 186.45 77.5867 185.65 77.16C184.85 76.7333 184.157 76.16 183.57 75.44C183.01 74.6933 182.69 73.8533 182.61 72.92C182.53 72.0667 182.464 71.04 182.41 69.84C182.357 68.64 182.33 67.3467 182.33 65.96C182.33 64.0133 182.397 61.9867 182.53 59.88C182.69 57.7733 182.97 55.7867 183.37 53.92C183.504 53.36 183.73 53.08 184.05 53.08C184.717 53.08 185.424 53.2533 186.17 53.6C186.944 53.9467 187.597 54.3867 188.13 54.92C188.664 55.4267 188.93 55.9467 188.93 56.48C188.93 56.7733 188.904 57.1867 188.85 57.72C188.797 58.2267 188.757 58.9867 188.73 60H188.81C188.97 59.1467 189.277 58.24 189.73 57.28C190.21 56.2933 190.81 55.4533 191.53 54.76C192.25 54.04 193.064 53.68 193.97 53.68C194.61 54.4267 195.117 55.4 195.49 56.6C195.864 57.8 196.064 59 196.09 60.2C194.704 60.52 193.477 61.0133 192.41 61.68C191.37 62.32 190.317 63.2 189.25 64.32C188.904 65.7067 188.637 67.1867 188.45 68.76C188.29 70.3067 188.17 71.7733 188.09 73.16C188.037 74.52 188.01 75.64 188.01 76.52C188.01 77.3733 188.01 77.8 188.01 77.8ZM202.687 77.48C201.94 77.48 201.18 77.2533 200.407 76.8C199.66 76.32 198.953 75.6933 198.287 74.92C197.647 74.12 197.127 73.24 196.727 72.28C196.327 71.32 196.127 70.36 196.127 69.4C196.127 67.5067 196.393 65.6267 196.927 63.76C197.487 61.8933 198.247 60.2 199.207 58.68C200.193 57.16 201.353 55.9467 202.687 55.04C204.02 54.1333 205.46 53.68 207.007 53.68C207.7 53.68 208.46 53.8933 209.287 54.32C210.113 54.72 210.713 55.32 211.087 56.12C212.1 56.6 212.847 57.32 213.327 58.28C213.807 59.24 213.993 60.12 213.887 60.92C213.807 61.56 213.527 62.2933 213.047 63.12C212.567 63.92 211.953 64.7467 211.207 65.6C210.46 66.4267 209.633 67.2 208.727 67.92C207.82 68.6133 206.887 69.1867 205.927 69.64C204.993 70.0667 204.087 70.28 203.207 70.28C202.887 70.28 202.54 70.1733 202.167 69.96C202.247 70.8133 202.487 71.4267 202.887 71.8C203.313 72.1467 203.873 72.32 204.567 72.32C205.58 72.32 206.7 71.96 207.927 71.24C209.153 70.52 210.46 69.56 211.847 68.36C212.46 68.6533 212.927 69.04 213.247 69.52C213.567 69.9733 213.687 70.5467 213.607 71.24C213.5 72.04 213.073 72.8133 212.327 73.56C211.607 74.28 210.687 74.9467 209.567 75.56C208.473 76.1467 207.313 76.6133 206.087 76.96C204.887 77.3067 203.753 77.48 202.687 77.48ZM208.647 58.08C207.607 58.1333 206.66 58.6133 205.807 59.52C204.953 60.4267 204.233 61.5467 203.647 62.88C203.06 64.1867 202.633 65.4933 202.367 66.8C203.247 66.6133 204.073 66.16 204.847 65.44C205.647 64.6933 206.34 63.8533 206.927 62.92C207.54 61.96 208.007 61.04 208.327 60.16C208.647 59.2533 208.753 58.56 208.647 58.08ZM232.352 77.56C230.565 77.56 229.325 77.04 228.632 76C227.965 74.96 227.632 73.6267 227.632 72C227.632 70.7467 227.792 69.3733 228.112 67.88C228.432 66.36 228.805 64.8267 229.232 63.28H229.152C227.819 65.44 226.579 67.7067 225.432 70.08C224.285 72.4267 223.219 74.88 222.232 77.44C220.792 77.44 219.672 76.9467 218.872 75.96C218.045 75.5867 217.432 75.04 217.032 74.32C216.659 73.5733 216.472 72.7867 216.472 71.96C216.472 69.5067 216.619 66.8 216.912 63.84C217.205 60.88 217.699 57.8 218.392 54.6C218.472 54.0933 218.752 53.84 219.232 53.84C219.952 53.84 220.632 54.0133 221.272 54.36C221.912 54.68 222.432 55.1467 222.832 55.76C223.232 56.3733 223.432 57.0933 223.432 57.92C223.432 58.0533 223.432 58.2 223.432 58.36C223.432 58.52 223.405 58.68 223.352 58.84L221.352 69.16H221.432C222.099 67.64 222.765 66.1333 223.432 64.64C224.125 63.12 224.819 61.7467 225.512 60.52C226.232 59.2667 226.979 58.2667 227.752 57.52C228.525 56.7467 229.325 56.36 230.152 56.36C230.819 56.36 231.525 56.7067 232.272 57.4C233.019 57.6133 233.579 57.9733 233.952 58.48C234.352 58.96 234.552 59.4933 234.552 60.08C234.552 60.16 234.552 60.24 234.552 60.32C234.552 60.4 234.539 60.48 234.512 60.56C234.405 61.1467 234.285 61.9733 234.152 63.04C234.019 64.08 233.885 65.2667 233.752 66.6C233.645 67.9067 233.552 69.28 233.472 70.72C233.392 72.1333 233.352 73.5067 233.352 74.84C233.352 75.2667 233.365 75.6933 233.392 76.12C233.445 76.5467 233.499 76.9467 233.552 77.32C233.152 77.48 232.752 77.56 232.352 77.56ZM240.369 77.8C239.809 77.8 239.275 77.64 238.769 77.32C238.262 77 237.902 76.5467 237.689 75.96C236.675 75.4533 236.249 74.5733 236.409 73.32C236.462 73.0267 236.542 72.6933 236.649 72.32C236.782 71.92 236.942 71.5867 237.129 71.32L245.209 59.36C243.769 59.92 242.502 60.2 241.409 60.2C240.849 60.2 240.222 60 239.529 59.6C238.862 59.1733 238.275 58.64 237.769 58C237.289 57.3333 237.049 56.64 237.049 55.92C237.049 55.68 237.142 55.52 237.329 55.44C237.542 55.3333 237.742 55.28 237.929 55.28C238.302 55.28 238.955 55.2133 239.889 55.08C240.849 54.92 241.889 54.7467 243.009 54.56C244.155 54.3467 245.235 54.1733 246.249 54.04C247.289 53.88 248.075 53.8 248.609 53.8C249.995 53.8 250.955 54.2933 251.489 55.28C252.102 55.6533 252.489 56.0533 252.649 56.48C252.835 56.9067 252.902 57.3733 252.849 57.88C252.822 57.9867 252.755 58.08 252.649 58.16C252.542 58.24 252.449 58.3467 252.369 58.48L242.889 72.56C243.502 72.3733 244.155 72.1867 244.849 72C245.542 71.8133 246.289 71.72 247.089 71.72C247.942 71.72 248.769 71.8267 249.569 72.04C250.369 72.2533 251.022 72.56 251.529 72.96C252.035 73.36 252.289 73.84 252.289 74.4C252.289 74.6667 252.195 74.84 252.009 74.92C251.822 75 251.635 75.0667 251.449 75.12C251.129 75.2 250.609 75.3467 249.889 75.56C249.195 75.7467 248.395 75.9733 247.489 76.24C246.582 76.48 245.662 76.72 244.729 76.96C243.822 77.2 242.969 77.4 242.169 77.56C241.395 77.72 240.795 77.8 240.369 77.8ZM259.679 77.48C258.932 77.48 258.172 77.2533 257.399 76.8C256.652 76.32 255.946 75.6933 255.279 74.92C254.639 74.12 254.119 73.24 253.719 72.28C253.319 71.32 253.119 70.36 253.119 69.4C253.119 67.5067 253.386 65.6267 253.919 63.76C254.479 61.8933 255.239 60.2 256.199 58.68C257.186 57.16 258.346 55.9467 259.679 55.04C261.012 54.1333 262.452 53.68 263.999 53.68C264.692 53.68 265.452 53.8933 266.279 54.32C267.106 54.72 267.706 55.32 268.079 56.12C269.092 56.6 269.839 57.32 270.319 58.28C270.799 59.24 270.986 60.12 270.879 60.92C270.799 61.56 270.519 62.2933 270.039 63.12C269.559 63.92 268.946 64.7467 268.199 65.6C267.452 66.4267 266.626 67.2 265.719 67.92C264.812 68.6133 263.879 69.1867 262.919 69.64C261.986 70.0667 261.079 70.28 260.199 70.28C259.879 70.28 259.532 70.1733 259.159 69.96C259.239 70.8133 259.479 71.4267 259.879 71.8C260.306 72.1467 260.866 72.32 261.559 72.32C262.572 72.32 263.692 71.96 264.919 71.24C266.146 70.52 267.452 69.56 268.839 68.36C269.452 68.6533 269.919 69.04 270.239 69.52C270.559 69.9733 270.679 70.5467 270.599 71.24C270.492 72.04 270.066 72.8133 269.319 73.56C268.599 74.28 267.679 74.9467 266.559 75.56C265.466 76.1467 264.306 76.6133 263.079 76.96C261.879 77.3067 260.746 77.48 259.679 77.48ZM265.639 58.08C264.599 58.1333 263.652 58.6133 262.799 59.52C261.946 60.4267 261.226 61.5467 260.639 62.88C260.052 64.1867 259.626 65.4933 259.359 66.8C260.239 66.6133 261.066 66.16 261.839 65.44C262.639 64.6933 263.332 63.8533 263.919 62.92C264.532 61.96 264.999 61.04 265.319 60.16C265.639 59.2533 265.746 58.56 265.639 58.08Z" fill="#FEFEFE"/>
<path fill-rule="evenodd" clip-rule="evenodd" d="M88.6703 32.548C88.9533 32.9444 89.1554 33.3927 89.2651 33.8672C89.3748 34.3417 89.39 34.8332 89.3098 35.3136C89.2295 35.794 89.0555 36.2538 88.7975 36.6669C88.5395 37.08 88.2027 37.4383 87.8063 37.7212L80.015 43.2874C78.8167 44.1422 77.9054 45.3398 77.401 46.7226C76.8966 48.1054 76.8228 49.6085 77.1893 51.0341L89.5863 38.6371C89.9283 38.2829 90.3375 38.0004 90.79 37.8061C91.2424 37.6117 91.729 37.5094 92.2214 37.5052C92.7138 37.5009 93.2021 37.5947 93.6578 37.7812C94.1136 37.9676 94.5276 38.243 94.8758 38.5912C95.224 38.9394 95.4993 39.3534 95.6858 39.8091C95.8723 40.2649 95.9661 40.7532 95.9618 41.2456C95.9575 41.738 95.8552 42.2246 95.6609 42.677C95.4665 43.1294 95.184 43.5386 94.8298 43.8807L82.4329 56.2777C83.8584 56.6442 85.3616 56.5704 86.7444 56.066C88.1272 55.5616 89.3248 54.6502 90.1796 53.4519L95.7458 45.6607C96.3278 44.8884 97.1885 44.374 98.1444 44.2272C99.1002 44.0804 100.076 44.3128 100.863 44.8749C101.649 45.4369 102.186 46.2841 102.357 47.2359C102.528 48.1877 102.321 49.1687 101.779 49.9698L96.2168 57.7647C94.0818 60.7526 90.9066 62.834 87.315 63.5998C83.7235 64.3656 79.9754 63.7604 76.8073 61.9032L70.3697 68.3409L88.1808 86.1557C88.8563 86.8551 89.2301 87.7918 89.2216 88.7642C89.2132 89.7365 88.8232 90.6666 88.1356 91.3541C87.4481 92.0417 86.518 92.4317 85.5457 92.4401C84.5733 92.4486 83.6366 92.0748 82.9372 91.3993L65.1261 73.5882L47.6302 91.0804C47.2881 91.4346 46.8789 91.7171 46.4265 91.9114C45.974 92.1058 45.4874 92.2081 44.995 92.2124C44.5026 92.2166 44.0143 92.1228 43.5586 91.9363C43.1028 91.7499 42.6888 91.4745 42.3406 91.1263C41.9924 90.7782 41.7171 90.3641 41.5306 89.9084C41.3442 89.4526 41.2503 88.9643 41.2546 88.4719C41.2589 87.9795 41.3612 87.4929 41.5555 87.0405C41.7499 86.5881 42.0324 86.1789 42.3866 85.8368L59.8788 68.3409L54.0938 62.5559L48.8502 67.7995C48.1548 68.4947 47.2117 68.8852 46.2284 68.8852C45.2451 68.8852 44.302 68.4947 43.6066 67.7995L35.4298 59.6263C32.678 56.8742 30.8621 53.326 30.2391 49.4843C29.6161 45.6427 30.2178 41.7025 31.9588 38.2218C32.6559 36.8275 33.4532 35.5703 35.1442 35.2922C35.7241 35.1983 36.3179 35.2434 36.8769 35.424C37.4359 35.6045 37.944 35.9152 38.3593 36.3306L56.7045 54.6794L56.7193 54.6905L65.1298 63.101L71.5675 56.6633C69.7113 53.4957 69.1067 49.7484 69.8725 46.1577C70.6383 42.567 72.719 39.3925 75.706 37.2576L83.5009 31.6914C84.301 31.1195 85.2955 30.8889 86.2656 31.0503C87.2358 31.2116 88.1021 31.7517 88.674 32.5518L88.6703 32.548ZM37.436 45.8981C37.349 47.4607 37.5927 49.0242 38.1512 50.4862C38.7097 51.9483 39.5704 53.276 40.677 54.3827L46.2284 59.9341L48.8502 57.3123L37.436 45.8981Z" fill="#FEFEFE"/>
</svg>
